<?xml version="1.0" encoding="UTF-8"?>
<svg width="200px" height="40px" viewBox="0 0 200 40" version="1.1" xmlns="http://www.w3.org/2000/svg" xmlns:xlink="http://www.w3.org/1999/xlink">
    <!-- Generator: Sketch 51.3 (57544) - http://www.bohemiancoding.com/sketch -->
    <title>logo</title>
    <desc>Created with Sketch.</desc>
    <defs></defs>
    <g id="dabblelab-v13" stroke="none" stroke-width="1" fill="none" fill-rule="evenodd">
        <g id="brand-guidelines" transform="translate(-52.000000, -118.000000)">
            <g id="logo" transform="translate(52.000000, 118.000000)">
                <path d="M54.7890625,18.546875 C53.3359302,18.546875 52.0937552,19.0624948 51.0625,20.09375 C50.0312448,21.1250052 49.515625,22.3671802 49.515625,23.8203125 C49.515625,25.2734448 50.0312448,26.5156198 51.0625,27.546875 C52.0937552,28.5781302 53.3359302,29.09375 54.7890625,29.09375 C56.2421948,29.09375 57.4843698,28.5781302 58.515625,27.546875 C59.5468802,26.5156198 60.0625,25.2734448 60.0625,23.8203125 C60.0625,22.3671802 59.5468802,21.1250052 58.515625,20.09375 C57.4843698,19.0624948 56.2421948,18.546875 54.7890625,18.546875 Z M60.0625,30.8691406 C58.5507737,32.0293027 56.7929788,32.609375 54.7890625,32.609375 C52.3632691,32.609375 50.2920008,31.7509851 48.5751953,30.0341797 C46.8583899,28.3173742 46,26.2461059 46,23.8203125 C46,21.3945191 46.8583899,19.3232508 48.5751953,17.6064453 C50.2920008,15.8896399 52.3632691,15.03125 54.7890625,15.03125 C56.7929788,15.03125 58.5507737,15.6113223 60.0625,16.7714844 L60.0625,8 L63.578125,8 L63.578125,32.609375 L60.0625,32.609375 L60.0625,30.8691406 Z M74.125,18.546875 C72.6718677,18.546875 71.4296927,19.0624948 70.3984375,20.09375 C69.3671823,21.1250052 68.8515625,22.3671802 68.8515625,23.8203125 C68.8515625,25.2734448 69.3671823,26.5156198 70.3984375,27.546875 C71.4296927,28.5781302 72.6718677,29.09375 74.125,29.09375 C75.5781323,29.09375 76.8203073,28.5781302 77.8515625,27.546875 C78.8828177,26.5156198 79.3984375,25.2734448 79.3984375,23.8203125 C79.3984375,22.3671802 78.8828177,21.1250052 77.8515625,20.09375 C76.8203073,19.0624948 75.5781323,18.546875 74.125,18.546875 Z M79.3984375,30.8691406 C77.8867112,32.0293027 76.1289163,32.609375 74.125,32.609375 C71.6992066,32.609375 69.6279383,31.7509851 67.9111328,30.0341797 C66.1943274,28.3173742 65.3359375,26.2461059 65.3359375,23.8203125 C65.3359375,21.3945191 66.1943274,19.3232508 67.9111328,17.6064453 C69.6279383,15.8896399 71.6992066,15.03125 74.125,15.03125 C76.1289163,15.03125 77.8867112,15.6113223 79.3984375,16.7714844 L79.3984375,15.03125 L82.9140625,15.03125 L82.9140625,32.609375 L79.3984375,32.609375 L79.3984375,30.8691406 Z M93.4609375,18.546875 C92.0078052,18.546875 90.7656302,19.0624948 89.734375,20.09375 C88.7031198,21.1250052 88.1875,22.3671802 88.1875,23.8203125 C88.1875,25.2734448 88.7031198,26.5156198 89.734375,27.546875 C90.7656302,28.5781302 92.0078052,29.09375 93.4609375,29.09375 C94.9140698,29.09375 96.1562448,28.5781302 97.1875,27.546875 C98.2187552,26.5156198 98.734375,25.2734448 98.734375,23.8203125 C98.734375,22.3671802 98.2187552,21.1250052 97.1875,20.09375 C96.1562448,19.0624948 94.9140698,18.546875 93.4609375,18.546875 Z M88.1875,32.609375 L84.671875,32.609375 L84.671875,8 L88.1875,8 L88.1875,16.7714844 C89.6992263,15.6113223 91.4570212,15.03125 93.4609375,15.03125 C95.8867309,15.03125 97.9579992,15.8896399 99.6748047,17.6064453 C101.39161,19.3232508 102.25,21.3945191 102.25,23.8203125 C102.25,26.2461059 101.39161,28.3173742 99.6748047,30.0341797 C97.9579992,31.7509851 95.8867309,32.609375 93.4609375,32.609375 C91.4570212,32.609375 89.6992263,32.0293027 88.1875,30.8691406 L88.1875,32.609375 Z M112.796875,18.546875 C111.343743,18.546875 110.101568,19.0624948 109.070312,20.09375 C108.039057,21.1250052 107.523438,22.3671802 107.523438,23.8203125 C107.523438,25.2734448 108.039057,26.5156198 109.070312,27.546875 C110.101568,28.5781302 111.343743,29.09375 112.796875,29.09375 C114.250007,29.09375 115.492182,28.5781302 116.523438,27.546875 C117.554693,26.5156198 118.070312,25.2734448 118.070312,23.8203125 C118.070312,22.3671802 117.554693,21.1250052 116.523438,20.09375 C115.492182,19.0624948 114.250007,18.546875 112.796875,18.546875 Z M107.523438,32.609375 L104.007812,32.609375 L104.007812,8 L107.523438,8 L107.523438,16.7714844 C109.035164,15.6113223 110.792959,15.03125 112.796875,15.03125 C115.222668,15.03125 117.293937,15.8896399 119.010742,17.6064453 C120.727548,19.3232508 121.585938,21.3945191 121.585938,23.8203125 C121.585938,26.2461059 120.727548,28.3173742 119.010742,30.0341797 C117.293937,31.7509851 115.222668,32.609375 112.796875,32.609375 C110.792959,32.609375 109.035164,32.0293027 107.523438,30.8691406 L107.523438,32.609375 Z M126.859375,8 L126.859375,32.609375 L123.34375,32.609375 L123.34375,8 L126.859375,8 Z M142.398438,22.0625 C142.140624,21.3359339 141.718753,20.6796904 141.132812,20.09375 C140.101557,19.0624948 138.859382,18.546875 137.40625,18.546875 C135.953118,18.546875 134.710943,19.0624948 133.679688,20.09375 C133.093747,20.6796904 132.671876,21.3359339 132.414062,22.0625 L142.398438,22.0625 Z M141.326172,27.3359375 L144.455078,29.09375 L143.628906,30.0253906 C141.906241,31.7480555 139.832043,32.609375 137.40625,32.609375 C134.980457,32.609375 132.909188,31.7509851 131.192383,30.0341797 C129.475577,28.3173742 128.617188,26.2461059 128.617188,23.8203125 C128.617188,21.3945191 129.475577,19.3232508 131.192383,17.6064453 C132.909188,15.8896399 134.980457,15.03125 137.40625,15.03125 C139.832043,15.03125 141.903312,15.8896399 143.620117,17.6064453 C145.336923,19.3232508 146.195312,21.3945191 146.195312,23.8203125 C146.195312,24.4296905 146.142579,25.0156222 146.037109,25.578125 L132.414062,25.578125 C132.671876,26.3046911 133.093747,26.9609346 133.679688,27.546875 C134.710943,28.5781302 135.953118,29.09375 137.40625,29.09375 C138.859382,29.09375 140.101557,28.5781302 141.132812,27.546875 C141.203125,27.4765621 141.267578,27.4062504 141.326172,27.3359375 Z M160.398438,8 L160.398438,32.609375 L156.882812,32.609375 L156.882812,8 L160.398438,8 Z M170.945312,18.546875 C169.49218,18.546875 168.250005,19.0624948 167.21875,20.09375 C166.187495,21.1250052 165.671875,22.3671802 165.671875,23.8203125 C165.671875,25.2734448 166.187495,26.5156198 167.21875,27.546875 C168.250005,28.5781302 169.49218,29.09375 170.945312,29.09375 C172.398445,29.09375 173.64062,28.5781302 174.671875,27.546875 C175.70313,26.5156198 176.21875,25.2734448 176.21875,23.8203125 C176.21875,22.3671802 175.70313,21.1250052 174.671875,20.09375 C173.64062,19.0624948 172.398445,18.546875 170.945312,18.546875 Z M176.21875,30.8691406 C174.707024,32.0293027 172.949229,32.609375 170.945312,32.609375 C168.519519,32.609375 166.448251,31.7509851 164.731445,30.0341797 C163.01464,28.3173742 162.15625,26.2461059 162.15625,23.8203125 C162.15625,21.3945191 163.01464,19.3232508 164.731445,17.6064453 C166.448251,15.8896399 168.519519,15.03125 170.945312,15.03125 C172.949229,15.03125 174.707024,15.6113223 176.21875,16.7714844 L176.21875,15.03125 L179.734375,15.03125 L179.734375,32.609375 L176.21875,32.609375 L176.21875,30.8691406 Z M190.28125,18.546875 C188.828118,18.546875 187.585943,19.0624948 186.554688,20.09375 C185.523432,21.1250052 185.007812,22.3671802 185.007812,23.8203125 C185.007812,25.2734448 185.523432,26.5156198 186.554688,27.546875 C187.585943,28.5781302 188.828118,29.09375 190.28125,29.09375 C191.734382,29.09375 192.976557,28.5781302 194.007812,27.546875 C195.039068,26.5156198 195.554688,25.2734448 195.554688,23.8203125 C195.554688,22.3671802 195.039068,21.1250052 194.007812,20.09375 C192.976557,19.0624948 191.734382,18.546875 190.28125,18.546875 Z M185.007812,32.609375 L181.492188,32.609375 L181.492188,8 L185.007812,8 L185.007812,16.7714844 C186.519539,15.6113223 188.277334,15.03125 190.28125,15.03125 C192.707043,15.03125 194.778312,15.8896399 196.495117,17.6064453 C198.211923,19.3232508 199.070312,21.3945191 199.070312,23.8203125 C199.070312,26.2461059 198.211923,28.3173742 196.495117,30.0341797 C194.778312,31.7509851 192.707043,32.609375 190.28125,32.609375 C188.277334,32.609375 186.519539,32.0293027 185.007812,30.8691406 L185.007812,32.609375 Z" id="dabble-lab" fill="#2A2A2A"></path>
                <g id="mark" fill="#F6511D">
                    <path d="M3,0 L37,0 C38.6568542,-3.04359188e-16 40,1.34314575 40,3 L40,37 C40,38.6568542 38.6568542,40 37,40 L3,40 C1.34314575,40 2.02906125e-16,38.6568542 0,37 L0,3 C-2.02906125e-16,1.34314575 1.34314575,3.04359188e-16 3,0 Z M9.408,28.8 L12.96,28.8 C13.2160013,28.8 13.3919995,28.6800012 13.488,28.44 L20.112,12.528 L20.16,12.336 C20.16,12.1119989 20.0240014,12 19.752,12 L16.224,12 C15.9679987,12 15.7920005,12.1199988 15.696,12.36 L9.048,28.272 L9,28.464 C9,28.6880011 9.13599864,28.8 9.408,28.8 Z M21.48,28.8 C21.2079986,28.8 21.072,28.6880011 21.072,28.464 L21.12,28.272 L27.768,12.36 C27.8640005,12.1199988 28.0399987,12 28.296,12 L31.824,12 C32.0960014,12 32.232,12.1119989 32.232,12.336 L32.184,12.528 L25.56,28.44 C25.4639995,28.6800012 25.2880013,28.8 25.032,28.8 L21.48,28.8 Z" id="//"></path>
                </g>
            </g>
        </g>
    </g>
</svg>