<?xml version="1.0" encoding="UTF-8"?>
<svg width="440px" height="108px" viewBox="0 0 440 108" version="1.1" xmlns="http://www.w3.org/2000/svg" xmlns:xlink="http://www.w3.org/1999/xlink">
    <!-- Generator: Sketch 51.3 (57544) - http://www.bohemiancoding.com/sketch -->
    <title>logo-light</title>
    <desc>Created with Sketch.</desc>
    <defs>
        <path d="M15.5638852,13 L94.4361148,13 C95.3276335,13 95.6509198,13.0928256 95.9768457,13.2671327 C96.3027716,13.4414398 96.5585602,13.6972284 96.7328673,14.0231543 C96.9071744,14.3490802 97,14.6723665 97,15.5638852 L97,94.4361148 C97,95.3276335 96.9071744,95.6509198 96.7328673,95.9768457 C96.5585602,96.3027716 96.3027716,96.5585602 95.9768457,96.7328673 C95.6509198,96.9071744 95.3276335,97 94.4361148,97 L15.5638852,97 C14.6723665,97 14.3490802,96.9071744 14.0231543,96.7328673 C13.6972284,96.5585602 13.4414398,96.3027716 13.2671327,95.9768457 C13.0928256,95.6509198 13,95.3276335 13,94.4361148 L13,15.5638852 C13,14.6723665 13.0928256,14.3490802 13.2671327,14.0231543 C13.4414398,13.6972284 13.6972284,13.4414398 14.0231543,13.2671327 C14.3490802,13.0928256 14.6723665,13 15.5638852,13 Z M32.6393193,72.7071375 C32.090437,72.7071375 31.816,72.4707456 31.816,71.9979547 L31.9128611,71.5927074 L45.3281231,38.0078387 C45.5218463,37.501277 45.8770001,37.248 46.3935952,37.248 L53.5128858,37.248 C54.0617681,37.248 54.3362052,37.4843919 54.3362052,37.9571827 L54.2393441,38.36243 L40.8725126,71.9472988 C40.6787895,72.4538604 40.3236356,72.7071375 39.8070405,72.7071375 L32.6393193,72.7071375 Z M56.4393193,72.7071375 C55.890437,72.7071375 55.616,72.4707456 55.616,71.9979547 L55.7128611,71.5927074 L69.1281231,38.0078387 C69.3218463,37.501277 69.6770001,37.248 70.1935952,37.248 L77.3128858,37.248 C77.8617681,37.248 78.1362052,37.4843919 78.1362052,37.9571827 L78.0393441,38.36243 L64.6725126,71.9472988 C64.4787895,72.4538604 64.1236356,72.7071375 63.6070405,72.7071375 L56.4393193,72.7071375 Z" id="path-1"></path>
    </defs>
    <g id="logo-light" stroke="none" stroke-width="1" fill="none" fill-rule="evenodd">
        <g id="logo" transform="translate(111.000000, 28.000000)" fill="#FFFFFF">
            <path d="M18.3444586,22.3291139 C15.311493,22.3291139 12.7188354,23.4207486 10.5664082,25.6040506 C8.41398092,27.7873527 7.33778344,30.4171998 7.33778344,33.4936709 C7.33778344,36.570142 8.41398092,39.1999891 10.5664082,41.3832911 C12.7188354,43.5665932 15.311493,44.6582278 18.3444586,44.6582278 C21.3774243,44.6582278 23.9700818,43.5665932 26.1225091,41.3832911 C28.2749363,39.1999891 29.3511338,36.570142 29.3511338,33.4936709 C29.3511338,30.4171998 28.2749363,27.7873527 26.1225091,25.6040506 C23.9700818,23.4207486 21.3774243,22.3291139 18.3444586,22.3291139 Z M29.3511338,48.416962 C26.1958711,50.8731768 22.5270161,52.1012658 18.3444586,52.1012658 C13.2813627,52.1012658 8.95822854,50.2839422 5.37492637,46.6492405 C1.79162421,43.0145388 0,38.6293928 0,33.4936709 C0,28.357949 1.79162421,23.972803 5.37492637,20.3381013 C8.95822854,16.7033995 13.2813627,14.8860759 18.3444586,14.8860759 C22.5270161,14.8860759 26.1958711,16.1141649 29.3511338,18.5703797 L29.3511338,0 L36.6889172,0 L36.6889172,52.1012658 L29.3511338,52.1012658 L29.3511338,48.416962 Z M58.7648833,22.3291139 C55.7319176,22.3291139 53.1392601,23.4207486 50.9868329,25.6040506 C48.8344056,27.7873527 47.7582081,30.4171998 47.7582081,33.4936709 C47.7582081,36.570142 48.8344056,39.1999891 50.9868329,41.3832911 C53.1392601,43.5665932 55.7319176,44.6582278 58.7648833,44.6582278 C61.797849,44.6582278 64.3905065,43.5665932 66.5429338,41.3832911 C68.695361,39.1999891 69.7715585,36.570142 69.7715585,33.4936709 C69.7715585,30.4171998 68.695361,27.7873527 66.5429338,25.6040506 C64.3905065,23.4207486 61.797849,22.3291139 58.7648833,22.3291139 Z M69.7715585,48.416962 C66.6162958,50.8731768 62.9474408,52.1012658 58.7648833,52.1012658 C53.7017874,52.1012658 49.3786532,50.2839422 45.7953511,46.6492405 C42.2120489,43.0145388 40.4204247,38.6293928 40.4204247,33.4936709 C40.4204247,28.357949 42.2120489,23.972803 45.7953511,20.3381013 C49.3786532,16.7033995 53.7017874,14.8860759 58.7648833,14.8860759 C62.9474408,14.8860759 66.6162958,16.1141649 69.7715585,18.5703797 L69.7715585,14.8860759 L77.1093419,14.8860759 L77.1093419,52.1012658 L69.7715585,52.1012658 L69.7715585,48.416962 Z M91.4072575,25.6040506 C89.2548303,27.7873527 88.1786328,30.4171998 88.1786328,33.4936709 C88.1786328,36.570142 89.2548303,39.1999891 91.4072575,41.3832911 C93.5596848,43.5665932 96.1523423,44.6582278 99.185308,44.6582278 C102.218274,44.6582278 104.810931,43.5665932 106.963358,41.3832911 C109.115786,39.1999891 110.191983,36.570142 110.191983,33.4936709 C110.191983,30.4171998 109.115786,27.7873527 106.963358,25.6040506 C104.810931,23.4207486 102.218274,22.3291139 99.185308,22.3291139 C96.1523423,22.3291139 93.5596848,23.4207486 91.4072575,25.6040506 Z M88.1786328,52.1012658 L80.8408494,52.1012658 L80.8408494,0 L88.1786328,0 L88.1786328,18.5703797 C91.3338955,16.1141649 95.0027505,14.8860759 99.185308,14.8860759 C104.248404,14.8860759 108.571538,16.7033995 112.15484,20.3381013 C115.738142,23.972803 117.529767,28.357949 117.529767,33.4936709 C117.529767,38.6293928 115.738142,43.0145388 112.15484,46.6492405 C108.571538,50.2839422 104.248404,52.1012658 99.185308,52.1012658 C95.0027505,52.1012658 91.3338955,50.8731768 88.1786328,48.416962 L88.1786328,52.1012658 Z M131.827682,25.6040506 C129.675255,27.7873527 128.599058,30.4171998 128.599058,33.4936709 C128.599058,36.570142 129.675255,39.1999891 131.827682,41.3832911 C133.980109,43.5665932 136.572767,44.6582278 139.605733,44.6582278 C142.638698,44.6582278 145.231356,43.5665932 147.383783,41.3832911 C149.53621,39.1999891 150.612408,36.570142 150.612408,33.4936709 C150.612408,30.4171998 149.53621,27.7873527 147.383783,25.6040506 C145.231356,23.4207486 142.638698,22.3291139 139.605733,22.3291139 C136.572767,22.3291139 133.980109,23.4207486 131.827682,25.6040506 Z M128.599058,52.1012658 L121.261274,52.1012658 L121.261274,0 L128.599058,0 L128.599058,18.5703797 C131.75432,16.1141649 135.423175,14.8860759 139.605733,14.8860759 C144.668829,14.8860759 148.991963,16.7033995 152.575265,20.3381013 C156.158567,23.972803 157.950191,28.357949 157.950191,33.4936709 C157.950191,38.6293928 156.158567,43.0145388 152.575265,46.6492405 C148.991963,50.2839422 144.668829,52.1012658 139.605733,52.1012658 C135.423175,52.1012658 131.75432,50.8731768 128.599058,48.416962 L128.599058,52.1012658 Z M169.019482,0 L169.019482,52.1012658 L161.681699,52.1012658 L161.681699,0 L169.019482,0 Z M201.515101,29.7721519 C200.976994,28.2339164 200.096469,26.8445632 198.873499,25.6040506 C196.721072,23.4207486 194.128414,22.3291139 191.095448,22.3291139 C188.062483,22.3291139 185.469825,23.4207486 183.317398,25.6040506 C182.094428,26.8445632 181.213903,28.2339164 180.675796,29.7721519 L201.515101,29.7721519 Z M199.277077,40.9367089 L205.807704,44.6582278 L204.083325,46.6306329 C200.487793,50.2777398 196.158544,52.1012658 191.095448,52.1012658 C186.032352,52.1012658 181.709218,50.2839422 178.125916,46.6492405 C174.542614,43.0145388 172.75099,38.6293928 172.75099,33.4936709 C172.75099,28.357949 174.542614,23.972803 178.125916,20.3381013 C181.709218,16.7033995 186.032352,14.8860759 191.095448,14.8860759 C196.158544,14.8860759 200.481678,16.7033995 204.064981,20.3381013 C207.648283,23.972803 209.439907,28.357949 209.439907,33.4936709 C209.439907,34.7838039 209.329841,36.0242978 209.109707,37.2151899 L180.675796,37.2151899 C181.213903,38.7534254 182.094428,40.1427786 183.317398,41.3832911 C185.469825,43.5665932 188.062483,44.6582278 191.095448,44.6582278 C194.128414,44.6582278 196.721072,43.5665932 198.873499,41.3832911 C199.020255,41.2344296 199.15478,41.0855704 199.277077,40.9367089 Z M239.209784,0 L239.209784,52.1012658 L231.872,52.1012658 L231.872,0 L239.209784,0 Z M261.28575,22.3291139 C258.252784,22.3291139 255.660126,23.4207486 253.507699,25.6040506 C251.355272,27.7873527 250.279074,30.4171998 250.279074,33.4936709 C250.279074,36.570142 251.355272,39.1999891 253.507699,41.3832911 C255.660126,43.5665932 258.252784,44.6582278 261.28575,44.6582278 C264.318715,44.6582278 266.911373,43.5665932 269.0638,41.3832911 C271.216227,39.1999891 272.292425,36.570142 272.292425,33.4936709 C272.292425,30.4171998 271.216227,27.7873527 269.0638,25.6040506 C266.911373,23.4207486 264.318715,22.3291139 261.28575,22.3291139 Z M272.292425,48.416962 C269.137162,50.8731768 265.468307,52.1012658 261.28575,52.1012658 C256.222654,52.1012658 251.89952,50.2839422 248.316217,46.6492405 C244.732915,43.0145388 242.941291,38.6293928 242.941291,33.4936709 C242.941291,28.357949 244.732915,23.972803 248.316217,20.3381013 C251.89952,16.7033995 256.222654,14.8860759 261.28575,14.8860759 C265.468307,14.8860759 269.137162,16.1141649 272.292425,18.5703797 L272.292425,14.8860759 L279.630208,14.8860759 L279.630208,52.1012658 L272.292425,52.1012658 L272.292425,48.416962 Z M293.928124,25.6040506 C291.775697,27.7873527 290.699499,30.4171998 290.699499,33.4936709 C290.699499,36.570142 291.775697,39.1999891 293.928124,41.3832911 C296.080551,43.5665932 298.673209,44.6582278 301.706174,44.6582278 C304.73914,44.6582278 307.331798,43.5665932 309.484225,41.3832911 C311.636652,39.1999891 312.712849,36.570142 312.712849,33.4936709 C312.712849,30.4171998 311.636652,27.7873527 309.484225,25.6040506 C307.331798,23.4207486 304.73914,22.3291139 301.706174,22.3291139 C298.673209,22.3291139 296.080551,23.4207486 293.928124,25.6040506 Z M290.699499,52.1012658 L283.361716,52.1012658 L283.361716,0 L290.699499,0 L290.699499,18.5703797 C293.854762,16.1141649 297.523617,14.8860759 301.706174,14.8860759 C306.76927,14.8860759 311.092404,16.7033995 314.675707,20.3381013 C318.259009,23.972803 320.050633,28.357949 320.050633,33.4936709 C320.050633,38.6293928 318.259009,43.0145388 314.675707,46.6492405 C311.092404,50.2839422 306.76927,52.1012658 301.706174,52.1012658 C297.523617,52.1012658 293.854762,50.8731768 290.699499,48.416962 L290.699499,52.1012658 Z" id="dabble-lab"></path>
        </g>
        <mask id="mask-2" fill="white">
            <use xlink:href="#path-1"></use>
        </mask>
        <use id="Combined-Shape" fill="#FFFFFF" xlink:href="#path-1"></use>
    </g>
</svg>